<svg width="37" height="37" viewBox="0 0 37 37" fill="none" xmlns="http://www.w3.org/2000/svg">
<circle cx="18.5" cy="18.5" r="18.5" fill="white"/>
<path d="M27.9922 16.127C28.429 16.127 28.7832 15.7728 28.7832 15.3359C28.7832 9.63667 24.1702 5 18.5 5C12.8298 5 8.2168 9.63667 8.2168 15.3359C8.2168 15.7728 8.57096 16.127 9.00781 16.127H10.3124L16.245 20.873H13.7539C13.3171 20.873 12.9629 21.2272 12.9629 21.6641V31.209C12.9629 31.6458 13.3171 32 13.7539 32H23.2461C23.6829 32 24.0371 31.6458 24.0371 31.209V21.6641C24.0371 21.2272 23.6829 20.873 23.2461 20.873H20.755L26.6876 16.127H27.9922ZM27.1659 14.5449H24.0213C23.9263 12.1304 23.3586 9.37099 22.0573 7.34763C24.8593 8.61557 26.8786 11.3329 27.1659 14.5449ZM19.291 6.78179C21.4103 7.8446 22.3275 11.9383 22.438 14.5449H19.291V6.78179ZM19.291 22.4551V24.0371H17.709V22.4551H19.291ZM17.709 6.78179V14.5449H14.562C14.6713 11.9671 15.5825 7.84824 17.709 6.78179ZM9.834 14.5449C10.1213 11.3329 12.1407 8.61557 14.9426 7.34763C13.6403 9.37258 13.0736 12.1333 12.9787 14.5449H9.834ZM12.8449 16.127H17.709V20.0182L12.8449 16.127ZM20.873 24.8281V22.4551H22.4551V30.418H14.5449V22.4551H16.127V24.8281C16.127 25.265 16.4811 25.6191 16.918 25.6191H20.082C20.5189 25.6191 20.873 25.265 20.873 24.8281ZM19.291 20.0183V16.127H24.1551L19.291 20.0183Z" fill="#262626"/>
</svg>
