<svg width="37" height="37" viewBox="0 0 37 37" fill="none" xmlns="http://www.w3.org/2000/svg">
<circle cx="18.5" cy="18.5" r="18.5" fill="white"/>
<path d="M31.8914 17.0423L28.8446 11.6369C28.7069 11.3927 28.459 11.2432 28.1914 11.2432H23.875V10.973C23.875 9.33368 22.6221 8 21.082 8H6.76172C6.34105 8 6 8.36303 6 8.81081V25.027C6 25.4748 6.34105 25.8378 6.76172 25.8378H8.13769C8.47015 27.0842 9.54824 28 10.8242 28C12.1002 28 13.1782 27.0842 13.5108 25.8378H24.4893C24.8217 27.0842 25.8998 28 27.1758 28C28.4518 28 29.5298 27.0842 29.8623 25.8378H31.2383C31.659 25.8378 32 25.4748 32 25.027V17.4595C32 17.3125 31.9625 17.1683 31.8914 17.0423ZM14.8867 17.7297H7.52344V16.1081H14.8867C15.3074 16.1081 15.6484 15.7451 15.6484 15.2973V14.6924L18.6366 16.9189L15.6484 19.1454V18.5405C15.6484 18.0928 15.3074 17.7297 14.8867 17.7297ZM10.8242 26.3784C10.1242 26.3784 9.55469 25.7722 9.55469 25.027C9.55469 24.2819 10.1242 23.6757 10.8242 23.6757C11.5242 23.6757 12.0938 24.2819 12.0938 25.027C12.0938 25.7722 11.5242 26.3784 10.8242 26.3784ZM22.3516 24.2162H13.5108C13.1783 22.9699 12.1002 22.0541 10.8242 22.0541C9.54824 22.0541 8.4702 22.9699 8.13769 24.2162H7.52344V19.3514H14.125V20.7027C14.125 21.3586 14.8187 21.7431 15.3235 21.367L20.4017 17.5832C20.8349 17.2604 20.8349 16.5775 20.4017 16.2547L15.3235 12.4709C14.8187 12.0948 14.125 12.4792 14.125 13.1351V14.4865H7.52344V9.62162H21.082C21.7821 9.62162 22.3516 10.2278 22.3516 10.973V24.2162ZM29.8929 16.6486H26.9219V12.8649H27.7601L29.8929 16.6486ZM27.1758 26.3784C26.4758 26.3784 25.9062 25.7722 25.9062 25.027C25.9062 24.2819 26.4758 23.6757 27.1758 23.6757C27.8758 23.6757 28.4453 24.2819 28.4453 25.027C28.4453 25.7722 27.8758 26.3784 27.1758 26.3784ZM29.8623 24.2162C29.5298 22.9699 28.4518 22.0541 27.1758 22.0541C25.8998 22.0541 24.8218 22.9699 24.4893 24.2162H23.875V12.8649H25.3984V17.4595C25.3984 17.9072 25.7395 18.2703 26.1602 18.2703H30.4766V19.8919H29.207C28.7864 19.8919 28.4453 20.2549 28.4453 20.7027C28.4453 21.1505 28.7864 21.5135 29.207 21.5135H30.4766V24.2162H29.8623Z" fill="#262626"/>
</svg>
