<svg width="37" height="37" viewBox="0 0 37 37" fill="none" xmlns="http://www.w3.org/2000/svg">
<circle cx="18.5" cy="18.5" r="18.5" fill="white"/>
<path d="M27.064 11.0633C22.6411 11.0633 19.2537 7.37356 19.1967 7.31075C18.8263 6.8973 18.177 6.89565 17.8039 7.31039C17.7701 7.34774 14.3743 11.0633 9.93596 11.0633C9.41899 11.0633 9 11.483 9 12.0008C9 20.2406 10.6591 27.3694 18.0984 30.9094C18.3525 31.0302 18.6475 31.0302 18.9016 30.9094C26.3577 27.3614 28 20.208 28 12.0008C28 11.483 27.581 11.0633 27.064 11.0633ZM18.5 29.0174C12.4035 25.893 10.971 19.8084 10.8776 12.8942C14.4649 12.5586 17.2584 10.3933 18.5 9.25442C19.7416 10.3933 22.5352 12.5586 26.1224 12.8942C26.029 19.8099 24.5958 25.8934 18.5 29.0174ZM17.5388 19.9132L21.3481 16.0976C21.7135 15.7316 22.3062 15.7314 22.6716 16.0976C23.0372 16.4638 23.0372 17.0573 22.6718 17.4235L18.2007 21.9019C17.8353 22.2679 17.2425 22.2677 16.8771 21.9019L14.3284 19.349C13.9628 18.9828 13.9628 18.3892 14.3284 18.0232C14.6938 17.6569 15.2865 17.6569 15.6521 18.0232L17.5388 19.9132Z" fill="#262626"/>
</svg>
