<svg width="37" height="37" viewBox="0 0 37 37" fill="none" xmlns="http://www.w3.org/2000/svg">
<circle cx="18.5" cy="18.5" r="18.5" fill="white"/>
<path d="M15.248 15.248C15.8467 15.248 16.332 14.7627 16.332 14.1641C16.332 13.5654 15.8467 13.0801 15.248 13.0801H13.0801C12.4814 13.0801 11.9961 13.5654 11.9961 14.1641V22.8359C11.9961 23.4346 12.4814 23.9199 13.0801 23.9199H15.248C15.8467 23.9199 16.332 23.4346 16.332 22.8359C16.332 22.2373 15.8467 21.752 15.248 21.752H14.1641V19.584H15.248C15.8467 19.584 16.332 19.0986 16.332 18.5C16.332 17.9014 15.8467 17.416 15.248 17.416H14.1641V15.248H15.248Z" fill="#262626"/>
<path d="M25.0039 20.668V14.1641C25.0039 13.5654 24.5186 13.0801 23.9199 13.0801C23.3213 13.0801 22.8359 13.5654 22.8359 14.1641V20.668C22.8359 21.2657 22.3497 21.752 21.752 21.752C21.1542 21.752 20.668 21.2657 20.668 20.668V14.1641C20.668 13.5654 20.1826 13.0801 19.584 13.0801C18.9853 13.0801 18.5 13.5654 18.5 14.1641V20.668C18.5 22.4611 19.9588 23.9199 21.752 23.9199C23.5451 23.9199 25.0039 22.4611 25.0039 20.668Z" fill="#262626"/>
<path d="M18.5 32.5918C19.0987 32.5918 19.584 32.1065 19.584 31.5078C19.584 30.9091 19.0987 30.4238 18.5 30.4238C17.9013 30.4238 17.416 30.9091 17.416 31.5078C17.416 32.1065 17.9013 32.5918 18.5 32.5918Z" fill="#262626"/>
<path d="M18.5 6.57617C19.0987 6.57617 19.584 6.09086 19.584 5.49219C19.584 4.89352 19.0987 4.4082 18.5 4.4082C17.9013 4.4082 17.416 4.89352 17.416 5.49219C17.416 6.09086 17.9013 6.57617 18.5 6.57617Z" fill="#262626"/>
<path d="M24.4618 28.8264C23.9434 29.1258 23.7658 29.7887 24.0651 30.3072C24.3644 30.8257 25.0274 31.0033 25.5458 30.704C26.0643 30.4046 26.2419 29.7417 25.9425 29.2232C25.6432 28.7047 24.9803 28.5271 24.4618 28.8264Z" fill="#262626"/>
<path d="M12.538 8.17367C13.0565 7.87435 13.2341 7.21138 12.9347 6.69295C12.6354 6.17444 11.9724 5.99681 11.454 6.29621C10.9356 6.59553 10.7579 7.2585 11.0573 7.77693C11.3566 8.29537 12.0196 8.473 12.538 8.17367Z" fill="#262626"/>
<path d="M30.3073 24.0652C29.7888 23.7659 29.1259 23.9435 28.8266 24.4619C28.5272 24.9803 28.7049 25.6433 29.2233 25.9426C29.7417 26.2419 30.4047 26.0643 30.704 25.5459C31.0033 25.0275 30.8257 24.3645 30.3073 24.0652Z" fill="#262626"/>
<path d="M7.77701 11.0574C7.2585 10.758 6.59561 10.9357 6.29628 11.4541C5.99696 11.9725 6.17459 12.6355 6.69302 12.9348C7.21146 13.2342 7.87442 13.0565 8.17375 12.5381C8.47307 12.0197 8.29544 11.3567 7.77701 11.0574Z" fill="#262626"/>
<path d="M31.5078 19.584C32.1065 19.584 32.5918 19.0987 32.5918 18.5C32.5918 17.9013 32.1065 17.416 31.5078 17.416C30.9091 17.416 30.4238 17.9013 30.4238 18.5C30.4238 19.0987 30.9091 19.584 31.5078 19.584Z" fill="#262626"/>
<path d="M5.49219 19.584C6.09086 19.584 6.57617 19.0987 6.57617 18.5C6.57617 17.9013 6.09086 17.416 5.49219 17.416C4.89352 17.416 4.4082 17.9013 4.4082 18.5C4.4082 19.0987 4.89352 19.584 5.49219 19.584Z" fill="#262626"/>
<path d="M30.3073 12.9349C30.8257 12.6355 31.0034 11.9726 30.704 11.4541C30.4047 10.9357 29.7418 10.758 29.2233 11.0574C28.7049 11.3567 28.5272 12.0197 28.8266 12.5381C29.1259 13.0565 29.7888 13.2342 30.3073 12.9349Z" fill="#262626"/>
<path d="M6.69283 24.0652C6.17432 24.3645 5.99669 25.0275 6.29609 25.5459C6.59541 26.0643 7.25838 26.2419 7.77681 25.9426C8.29524 25.6433 8.47287 24.9803 8.17355 24.4619C7.87423 23.9435 7.21126 23.7659 6.69283 24.0652Z" fill="#262626"/>
<path d="M25.5458 6.29616C25.0274 5.99684 24.3644 6.17447 24.0651 6.6929C23.7658 7.21133 23.9434 7.8743 24.4618 8.17362C24.9803 8.47295 25.6432 8.29532 25.9425 7.77688C26.2419 7.25845 26.0643 6.59549 25.5458 6.29616Z" fill="#262626"/>
<path d="M12.538 28.8264C12.0196 28.5271 11.3566 28.7047 11.0573 29.2232C10.7579 29.7417 10.9356 30.4046 11.454 30.704C11.9725 31.0033 12.6354 30.8257 12.9347 30.3072C13.2341 29.7887 13.0565 29.1258 12.538 28.8264Z" fill="#262626"/>
</svg>