<svg width="37" height="37" viewBox="0 0 37 37" fill="none" xmlns="http://www.w3.org/2000/svg">
<circle cx="18.5" cy="18.5" r="18.5" fill="white"/>
<path d="M29.5278 26.9797L27.275 20.2297C27.1071 19.7267 26.7855 19.2892 26.3555 18.9788C25.9256 18.6685 25.409 18.501 24.8787 18.5H24.2966C25.1027 17.1076 25.6058 15.5608 25.7731 13.9606C25.7731 12.0317 25.0068 10.1817 23.6429 8.81775C22.2789 7.45377 20.429 6.6875 18.5 6.6875C16.571 6.6875 14.7211 7.45377 13.3571 8.81775C11.9931 10.1817 11.2269 12.0317 11.2269 13.9606C11.3942 15.5608 11.8973 17.1076 12.7034 18.5H12.1212C11.591 18.501 11.0744 18.6685 10.6445 18.9788C10.2145 19.2892 9.89291 19.7267 9.725 20.2297L7.47219 26.9797C7.34527 27.3598 7.31044 27.7647 7.37056 28.1609C7.43068 28.5572 7.58403 28.9335 7.81799 29.2589C8.05195 29.5843 8.35983 29.8495 8.71631 30.0327C9.07278 30.2158 9.46766 30.3118 9.86844 30.3125H27.1316C27.5323 30.3118 27.9272 30.2158 28.2837 30.0327C28.6402 29.8495 28.948 29.5843 29.182 29.2589C29.416 28.9335 29.5693 28.5572 29.6294 28.1609C29.6896 27.7647 29.6547 27.3598 29.5278 26.9797ZM18.5 8.375C19.9807 8.37723 21.4001 8.96643 22.4472 10.0135C23.4942 11.0605 24.0834 12.4799 24.0856 13.9606C24.0856 15.7156 21.9425 19.8162 18.5 24.6594C15.0575 19.8162 12.9144 15.7156 12.9144 13.9606C12.9166 12.4799 13.5058 11.0605 14.5528 10.0135C15.5999 8.96643 17.0193 8.37723 18.5 8.375ZM27.7812 28.2706C27.7036 28.3797 27.6011 28.4687 27.4823 28.5303C27.3635 28.5919 27.2317 28.6244 27.0978 28.625H9.86844C9.74033 28.6192 9.61524 28.5842 9.50267 28.5228C9.39009 28.4614 9.29299 28.3752 9.21875 28.2706C9.14175 28.1617 9.09166 28.0361 9.0726 27.9041C9.05353 27.7721 9.06603 27.6375 9.10906 27.5112L11.3534 20.7613C11.4081 20.599 11.5108 20.4572 11.648 20.3548C11.7851 20.2523 11.9502 20.1939 12.1212 20.1875H13.4375C13.4878 20.1954 13.5391 20.1954 13.5894 20.1875C14.7453 22.2125 16.1206 24.2206 17.1247 25.6719C17.2807 25.8913 17.4869 26.0702 17.7262 26.1937C17.9654 26.3171 18.2308 26.3815 18.5 26.3815C18.7692 26.3815 19.0345 26.3171 19.2738 26.1937C19.5131 26.0702 19.7193 25.8913 19.8753 25.6719C20.9047 24.2206 22.2547 22.2125 23.4106 20.1875C23.4609 20.1954 23.5122 20.1954 23.5625 20.1875H24.8787C25.0627 20.1779 25.2448 20.2288 25.3972 20.3324C25.5495 20.436 25.6638 20.5866 25.7225 20.7613L27.9669 27.5112C27.9995 27.6434 27.9996 27.7815 27.9673 27.9137C27.935 28.046 27.8712 28.1684 27.7812 28.2706ZM22.1619 13.9269C22.1552 13.196 21.9319 12.4835 21.5203 11.8795C21.1086 11.2755 20.5272 10.8072 19.8493 10.5337C19.1715 10.2601 18.4278 10.1938 17.7123 10.3429C16.9968 10.492 16.3415 10.85 15.8294 11.3715C15.3174 11.8931 14.9714 12.5548 14.8354 13.2729C14.6993 13.991 14.7793 14.7334 15.0651 15.4061C15.351 16.0788 15.8299 16.6516 16.4413 17.0521C17.0527 17.4527 17.7691 17.6629 18.5 17.6562C19.4795 17.654 20.4182 17.2639 21.1107 16.5714C21.8033 15.8788 22.1934 14.9401 22.1956 13.9606L22.1619 13.9269ZM18.5 15.9688C18.1004 15.9704 17.7094 15.8534 17.3765 15.6324C17.0436 15.4115 16.7838 15.0966 16.6301 14.7278C16.4765 14.359 16.4358 13.9528 16.5134 13.5609C16.5909 13.1689 16.7831 12.8088 17.0657 12.5263C17.3482 12.2438 17.7083 12.0515 18.1002 11.974C18.4922 11.8964 18.8984 11.9371 19.2672 12.0908C19.636 12.2444 19.9508 12.5042 20.1718 12.8371C20.3927 13.17 20.5098 13.5611 20.5081 13.9606C20.5081 14.4932 20.2966 15.004 19.92 15.3806C19.5434 15.7572 19.0326 15.9688 18.5 15.9688Z" fill="#262626"/>
</svg>
